<svg xmlns="http://www.w3.org/2000/svg">

<symbol id="phone" viewBox="0 0 24 24">
    <path d="M23.9481 18.5956C23.8802 18.3911 23.4483 18.0898 22.6528 17.6924C22.4372 17.5671 22.1301 17.3969 21.7328 17.181C21.335 16.965 20.974 16.7661 20.6504 16.5842C20.3261 16.4024 20.0222 16.2263 19.7384 16.0561C19.693 16.022 19.551 15.9227 19.3123 15.7576C19.0735 15.5929 18.872 15.4707 18.707 15.391C18.5422 15.3118 18.3802 15.2719 18.2211 15.2719C17.9939 15.2719 17.7101 15.4339 17.3693 15.7576C17.0285 16.0816 16.7159 16.4336 16.432 16.8147C16.148 17.1955 15.8468 17.5475 15.5289 17.8714C15.2106 18.1954 14.949 18.3572 14.7447 18.3572C14.6422 18.3572 14.5143 18.3286 14.361 18.2722C14.2078 18.2154 14.0913 18.1668 14.0113 18.1276C13.932 18.0875 13.7959 18.0082 13.6026 17.8885C13.409 17.7692 13.3013 17.7038 13.2786 17.6924C11.7218 16.8286 10.3867 15.8399 9.273 14.7266C8.15962 13.6127 7.17084 12.2777 6.30725 10.7208C6.29591 10.6981 6.23042 10.5901 6.11119 10.397C5.99179 10.2038 5.91221 10.0676 5.87245 9.98781C5.83268 9.90835 5.78439 9.79181 5.72767 9.63844C5.67095 9.48506 5.64248 9.3573 5.64248 9.25491C5.64248 9.05049 5.80445 8.789 6.12833 8.47079C6.45215 8.15276 6.80451 7.8515 7.18505 7.56762C7.56589 7.28374 7.91789 6.97114 8.24183 6.63036C8.56565 6.2894 8.72756 6.00546 8.72756 5.77824C8.72756 5.61925 8.6878 5.45716 8.60834 5.29244C8.52882 5.12737 8.40667 4.92594 8.24183 4.68719C8.07693 4.44856 7.97753 4.30665 7.94338 4.26098C7.77311 3.97709 7.59717 3.67315 7.41514 3.34927C7.23311 3.02545 7.03442 2.66449 6.81842 2.26682C6.6026 1.86932 6.43227 1.5624 6.30713 1.34651C5.90964 0.551227 5.60856 0.119224 5.40397 0.0512838C5.32438 0.0171941 5.20498 0 5.04605 0C4.73907 0 4.33859 0.0567167 3.84432 0.170508C3.34987 0.284121 2.96079 0.403286 2.67667 0.52848C2.10849 0.766989 1.50628 1.46013 0.869857 2.60766C0.290332 3.6756 0.000598907 4.73262 0.000598907 5.77794C0.000598907 6.08451 0.0204796 6.38278 0.060241 6.67281C0.100002 6.96254 0.171047 7.28929 0.273436 7.65299C0.375645 8.01658 0.458093 8.28667 0.520422 8.46255C0.58281 8.63855 0.699289 8.95384 0.869797 9.40852C1.04007 9.86309 1.14245 10.1414 1.17654 10.2436C1.57422 11.3573 2.0458 12.3515 2.59118 13.2266C3.4885 14.681 4.71304 16.1841 6.26409 17.7353C7.8152 19.2864 9.31802 20.5108 10.7726 21.4085C11.6475 21.9538 12.6421 22.4254 13.7556 22.8233C13.8579 22.8573 14.1362 22.9594 14.5906 23.1303C15.0451 23.3007 15.3605 23.4171 15.5365 23.4796C15.7126 23.5422 15.9828 23.6247 16.346 23.7271C16.7101 23.8295 17.0366 23.9005 17.3263 23.9406C17.6162 23.9798 17.9145 24.0001 18.2212 24.0001C19.2664 24.0001 20.3235 23.7101 21.3916 23.1307C22.539 22.4945 23.232 21.8922 23.4706 21.3236C23.5961 21.0397 23.715 20.6506 23.8286 20.1561C23.9426 19.6619 23.9992 19.2615 23.9992 18.9545C23.9995 18.795 23.9824 18.6759 23.9481 18.5956Z"/>
</symbol>

<symbol id="board" viewBox="0 0 52 52">
    <path d="M47.6224 4.37754C47.352 4.10692 46.9749 3.97023 46.5941 4.00545C46.4351 4.01989 42.6411 4.38072 37.4378 6.12723C20.5036 11.3426 9.29627 27.7628 4.08474 39.6415C3.7567 40.4259 4.41948 41.4759 5.41151 41.3891L11.1678 40.8291L10.6078 46.5849C10.5465 47.4123 11.3497 48.2837 12.3555 47.9116C33.0348 38.4891 45.6483 24.0671 47.9947 5.40583C48.0294 5.0248 47.8931 4.64799 47.6224 4.37754ZM30.9597 32.7069C28.6747 34.7864 26.4223 36.574 24.3403 38.0798V16.1341C26.5228 14.3454 28.7848 12.8957 30.9597 11.7252V32.7069ZM18.3821 41.9794C16.3358 43.1817 14.6086 44.0592 13.387 44.6383L13.885 39.5196C13.9589 38.8536 13.3427 38.0111 12.4774 38.1122L7.36042 38.6099C9.08912 34.9423 13.7449 26.4028 21.7627 18.4555V39.8653C20.5271 40.6844 19.3872 41.3889 18.3821 41.9794ZM43.405 13.8128C41.8914 18.2983 38.9521 24.7742 33.5372 30.2415V10.4412C37.0645 8.73768 42.4534 7.21067 45.194 6.80577C44.9314 8.3448 44.4041 10.8517 43.405 13.8128Z"/>
</symbol>

<symbol id="saw" viewBox="0 0 52 52">
    <path d="M46.7109 19.5547H37.4859C37.4867 19.5466 37.4881 19.5386 37.489 19.5305C38.5624 18.6069 39.4204 17.5102 40.0436 16.264C40.2435 15.8644 40.2221 15.3899 39.9873 15.0099C39.7523 14.6298 39.3374 14.3984 38.8906 14.3984H36.9008C36.4691 13.1771 35.8389 12.0492 35.0187 11.0309C35.1239 9.62022 34.955 8.23997 34.5149 6.9198C34.3737 6.49596 34.023 6.1755 33.5882 6.07289C33.1533 5.97019 32.6965 6.10013 32.3805 6.41595L30.9706 7.82584C29.8057 7.26897 28.5654 6.91748 27.2672 6.77663C26.2944 5.63065 25.1731 4.72358 23.9983 4.13612C23.5987 3.93631 23.1243 3.95762 22.7441 4.19249C22.3642 4.42736 22.1328 4.84226 22.1328 5.28905V7.36479C20.9116 7.79645 19.7835 8.4268 18.7653 9.2469C17.3548 9.1418 15.9743 9.31067 14.6544 9.75076C14.2305 9.89204 13.9101 10.2427 13.8074 10.6775C13.7048 11.1123 13.8346 11.5693 14.1505 11.8851L15.5601 13.2948C15.0029 14.4606 14.6513 15.7017 14.5107 17.0009C13.647 17.7441 12.9231 18.5995 12.3484 19.5548H5.28906C4.57716 19.5548 4 20.1319 4 20.8438V26.0001C4 26.712 4.57716 27.2891 5.28906 27.2891H6.66406V46.711C6.66406 47.4229 7.24122 48.0001 7.95312 48.0001H13.1094C13.8213 48.0001 14.3984 47.4229 14.3984 46.711V42.3416L26 37.701L37.6016 42.3416V46.7109C37.6016 47.4228 38.1787 48 38.8906 48H44.0469C44.7588 48 45.3359 47.4228 45.3359 46.7109V27.2891H46.7109C47.4228 27.2891 48 26.7119 48 26V20.8437C48 20.1318 47.4228 19.5547 46.7109 19.5547ZM16.5384 18.6726C16.8324 18.445 17.0138 18.1015 17.0359 17.7302C17.122 16.2914 17.5325 14.9395 18.2563 13.7122C18.5549 13.2059 18.473 12.5616 18.0574 12.1459L17.7103 11.7988C18.1413 11.7856 18.5778 11.8068 19.0183 11.8626C19.3871 11.9093 19.7584 11.7945 20.0365 11.5475C21.1136 10.5906 22.3613 9.92383 23.745 9.56547C24.3137 9.41835 24.7109 8.90522 24.7109 8.31775V7.80771C25.0177 8.10952 25.3132 8.44287 25.5929 8.80415C25.8206 9.09815 26.1641 9.27948 26.5352 9.30165C27.974 9.38758 29.3259 9.79819 30.5533 10.522C31.0597 10.8205 31.7039 10.7387 32.1195 10.3231L32.4668 9.97591C32.48 10.4069 32.4588 10.8435 32.403 11.284C32.3563 11.6529 32.4711 12.0241 32.7182 12.3022C33.675 13.3793 34.3418 14.627 34.7001 16.0107C34.8474 16.5794 35.3606 16.9766 35.948 16.9766H36.4345C36.1384 17.2916 35.8137 17.586 35.4617 17.8586C35.1677 18.0863 34.9864 18.4298 34.9642 18.8009C34.9491 19.0536 34.923 19.3052 34.8872 19.5548H29.6455C29.7886 19.1513 29.8672 18.7176 29.8672 18.2657C29.8672 16.1333 28.1324 14.3985 26 14.3985C23.8676 14.3985 22.1328 16.1333 22.1328 18.2657C22.1328 18.7176 22.2114 19.1513 22.3545 19.5548H15.5662C15.8624 19.2397 16.1865 18.9451 16.5384 18.6726ZM27.2891 18.2656C27.2891 18.9764 26.7108 19.5547 26 19.5547C25.2892 19.5547 24.7109 18.9764 24.7109 18.2656C24.7109 17.5548 25.2892 16.9766 26 16.9766C26.7108 16.9766 27.2891 17.5548 27.2891 18.2656ZM11.8203 45.4219H9.24219V27.2891H11.8203C11.8203 27.2803 11.8204 40.0167 11.8203 45.4219ZM14.3984 39.5648V33.0603L22.5291 36.3125L14.3984 39.5648ZM37.6016 39.5648L29.4709 36.3125L37.6016 33.0603V39.5648ZM37.6016 30.2835L26 34.9242L14.3984 30.2835V27.2891H37.6016V30.2835ZM42.7578 45.4219H40.1797C40.1797 43.1353 40.1797 30.0464 40.1797 27.2891H42.7578V45.4219ZM45.4219 24.7109H6.57812V22.1328H45.4219V24.7109Z"/>
</symbol>

<symbol id="car" viewBox="0 0 52 52">
    <path d="M37.2311 30.4117C34.1728 30.4117 31.6849 32.8997 31.6849 35.958C31.6849 39.0162 34.1728 41.5042 37.2311 41.5042C40.2899 41.5042 42.7773 39.0162 42.7773 35.958C42.7773 32.8997 40.2893 30.4117 37.2311 30.4117ZM37.2311 38.7311C35.7017 38.7311 34.458 37.4873 34.458 35.958C34.458 34.4286 35.7017 33.1849 37.2311 33.1849C38.7604 33.1849 40.0042 34.4286 40.0042 35.958C40.0042 37.4874 38.7604 38.7311 37.2311 38.7311Z"/>
    <path d="M18.2815 30.4117C15.2233 30.4117 12.7353 32.8997 12.7353 35.958C12.7353 39.0162 15.2233 41.5042 18.2815 41.5042C21.3398 41.5042 23.8278 39.0162 23.8278 35.958C23.8278 32.8997 21.3398 30.4117 18.2815 30.4117ZM18.2815 38.7311C16.7522 38.7311 15.5084 37.4873 15.5084 35.958C15.5084 34.4286 16.7522 33.1849 18.2815 33.1849C19.8104 33.1849 21.0546 34.4286 21.0546 35.958C21.0546 37.4874 19.8109 38.7311 18.2815 38.7311Z"/>
    <path d="M40.966 14.5367C40.7303 14.0685 40.251 13.7731 39.7269 13.7731H32.4243V16.5462H38.8718L42.6474 24.0558L45.1256 22.8097L40.966 14.5367Z"/>
    <path d="M33.0715 34.6177H22.5799V37.3908H33.0715V34.6177Z"/>
    <path d="M14.1218 34.6177H9.31515C8.54928 34.6177 7.92864 35.2384 7.92864 36.0042C7.92864 36.7701 8.54936 37.3907 9.31515 37.3907H14.1219C14.8878 37.3907 15.5084 36.77 15.5084 36.0042C15.5084 35.2383 14.8877 34.6177 14.1218 34.6177Z"/>
    <path d="M47.7088 26.1412L44.9815 22.6285C44.7195 22.2902 44.3151 22.0924 43.8866 22.0924H33.8109V12.3865C33.8109 11.6206 33.1902 11 32.4244 11H9.31515C8.54928 11 7.92864 11.6207 7.92864 12.3865C7.92864 13.1523 8.54936 13.773 9.31515 13.773H31.0378V23.4789C31.0378 24.2448 31.6586 24.8654 32.4243 24.8654H43.2076L45.2269 27.4666V34.6175H41.3907C40.6249 34.6175 40.0042 35.2382 40.0042 36.004C40.0042 36.7699 40.6249 37.3906 41.3907 37.3906H46.6134C47.3793 37.3906 47.9999 36.7698 48 36.004V26.9916C48 26.6838 47.8974 26.3843 47.7088 26.1412Z"/>
    <path d="M14.0294 27.5925H7.65123C6.88535 27.5925 6.26471 28.2132 6.26471 28.979C6.26471 29.7449 6.88544 30.3655 7.65123 30.3655H14.0293C14.7952 30.3655 15.4159 29.7448 15.4159 28.979C15.4159 28.2132 14.7952 27.5925 14.0294 27.5925Z"/>
    <path d="M17.2185 22.1386H5.38652C4.62073 22.1386 4 22.7594 4 23.5252C4 24.2911 4.62073 24.9117 5.38652 24.9117H17.2185C17.9844 24.9117 18.605 24.291 18.605 23.5252C18.605 22.7594 17.9844 22.1386 17.2185 22.1386Z"/>
    <path d="M19.4832 16.6849H7.65123C6.88535 16.6849 6.26471 17.3056 6.26471 18.0714C6.26471 18.8373 6.88544 19.4579 7.65123 19.4579H19.4832C20.2491 19.4579 20.8697 18.8372 20.8697 18.0714C20.8698 17.3056 20.2491 16.6849 19.4832 16.6849Z"/>
</symbol>

<symbol id="human" viewBox="0 0 68 68">
    <path d="M53.8359 60.0312H47.8594V55.7812H50.5223C51.6225 55.7812 52.5145 54.8893 52.5145 53.7891C52.5145 52.6888 51.6225 51.7969 50.5223 51.7969H47.8594V47.8125H53.1785C54.2787 47.8125 55.1707 46.9205 55.1707 45.8203C55.1707 44.7201 54.2787 43.8281 53.1785 43.8281H47.8594V39.8438H50.5223C51.6225 39.8438 52.5145 38.9518 52.5145 37.8516C52.5145 36.7513 51.6225 35.8594 50.5223 35.8594H47.8594V31.875H53.1785C54.2787 31.875 55.1707 30.983 55.1707 29.8828C55.1707 28.7826 54.2787 27.8906 53.1785 27.8906H47.8594V23.9062H50.5223C51.6225 23.9062 52.5145 23.0143 52.5145 21.9141C52.5145 20.8138 51.6225 19.9219 50.5223 19.9219H47.8594V15.9375H53.1785C54.2787 15.9375 55.1707 15.0455 55.1707 13.9453C55.1707 12.8451 54.2787 11.9531 53.1785 11.9531H47.8594V7.96875H50.5223C51.6225 7.96875 52.5145 7.07678 52.5145 5.97656C52.5145 4.87634 51.6225 3.98438 50.5223 3.98438H47.8594V1.99219C47.8594 0.891969 46.9674 0 45.8672 0C44.767 0 43.875 0.891969 43.875 1.99219V60.0312H36.6821L37.7778 42.5H37.9051C39.0053 42.5 39.8973 41.608 39.8973 40.5078V27.2232C39.8973 22.8007 36.9982 19.0441 33.0014 17.7493C34.7475 16.7048 35.9195 14.7956 35.9195 12.6172C35.9195 9.32171 33.2384 6.64062 29.943 6.64062C26.6475 6.64062 23.9664 9.32171 23.9664 12.6172C23.9664 14.7946 25.1373 16.703 26.882 17.7479C22.8831 19.0415 19.982 22.7991 19.982 27.2232V40.5078C19.982 41.608 20.874 42.5 21.9742 42.5H22.0948L23.1905 60.0312H13.9922C12.892 60.0312 12 60.9232 12 62.0234V66.0078C12 67.108 12.892 68 13.9922 68C15.0924 68 15.9844 67.108 15.9844 66.0078V64.0156H51.8438V66.0078C51.8438 67.108 52.7357 68 53.8359 68C54.9362 68 55.8281 67.108 55.8281 66.0078V62.0234C55.8281 60.9232 54.9362 60.0312 53.8359 60.0312ZM29.943 10.625C31.0415 10.625 31.9352 11.5187 31.9352 12.6172C31.9352 13.7157 31.0415 14.6094 29.943 14.6094C28.8445 14.6094 27.9508 13.7157 27.9508 12.6172C27.9508 11.5187 28.8443 10.625 29.943 10.625ZM23.9664 27.2232C23.9664 23.9296 26.646 21.25 29.9398 21.25C33.2334 21.25 35.913 23.9296 35.913 27.2232V38.5156H23.9664V27.2232ZM26.0869 42.5H33.7856L32.6899 60.0312H27.1826L26.0869 42.5Z"/>
</symbol>

<symbol id="fruit" viewBox="0 0 68 68">
    <path d="M35.875 32.1811V21.8166H40.025C49.9181 21.8166 57.9666 13.768 57.9666 3.875C57.9666 2.8395 57.1271 2 56.0916 2H50.0646C43.0369 2 36.9411 6.06275 33.9996 11.9622C31.0576 6.06262 24.9615 2 17.9334 2H11.9084C10.8729 2 10.0334 2.8395 10.0334 3.875C10.0334 13.7681 18.082 21.8166 27.975 21.8166H32.125V32.1811C15.3249 33.1521 2 47.0815 2 64.125C2 65.1605 2.8395 66 3.875 66H64.125C65.1605 66 66 65.1605 66 64.125C66 47.0815 52.6751 33.1521 35.875 32.1811ZM50.0646 5.75H54.0933C53.1726 12.692 47.2145 18.0666 40.025 18.0666H35.9981C36.9174 11.1243 42.8751 5.75 50.0646 5.75ZM27.975 18.0666C20.7854 18.0666 14.8272 12.692 13.9067 5.75H17.9334C25.123 5.75 31.0811 11.1246 32.0016 18.0666H27.975ZM5.8105 62.25C6.7385 47.9209 17.2449 40.245 24.0917 37.6657V42.3778C24.0917 42.9499 23.8689 43.4879 23.4641 43.8926L17.4391 49.9176C15.1423 52.2145 15.1423 55.9519 17.4391 58.2487L21.44 62.25H5.8105ZM26.7434 62.25L20.0906 55.5973C19.2543 54.7609 19.2534 53.4065 20.0906 52.5692L26.1156 46.5444C27.2288 45.4314 27.8417 43.9516 27.8417 42.3778V36.5489C29.8536 36.1014 31.9191 35.875 34 35.875C38.9144 35.875 43.6772 37.1336 47.9062 39.5337L37.5223 49.9178C35.2226 52.2174 35.2178 55.9449 37.5223 58.2489L41.5234 62.25H26.7434ZM46.8266 62.25L40.1739 55.5971C39.3382 54.7616 39.3371 53.4062 40.1739 52.5692L51.1001 41.6431C57.6121 46.6034 61.6477 54.1131 62.1879 62.2499H46.8266V62.25Z"/>
</symbol>

<symbol id="boards" viewBox="0 0 68 68">
    <path d="M67.58 64.7842C67.4752 64.6494 64.9503 61.4478 59.6006 58.2906C56.9903 56.75 53.3914 55.0512 48.7861 53.8092C49.7611 50.514 50.8711 45.7687 51.3499 40.1027C51.8914 33.6964 51.5072 27.4363 50.2076 21.4964C48.5791 14.0532 45.5041 7.10361 41.0679 0.840703C40.6944 0.313437 40.0884 0 39.4422 0C38.7961 0 38.1901 0.313305 37.8166 0.840703C36.4181 2.81509 35.155 4.85802 34.0297 6.96283C32.9044 4.85788 31.6415 2.81509 30.2428 0.840703C29.8694 0.313437 29.2633 0 28.6172 0C27.9711 0 27.3651 0.313305 26.9916 0.840703C22.5554 7.10348 19.4804 14.053 17.8518 21.4965C16.5523 27.4364 16.168 33.6964 16.7095 40.1029C17.2019 45.9283 18.3614 50.7807 19.3554 54.0843C15.1095 55.2884 11.6855 56.8436 9.12061 58.2632C3.46718 61.3926 0.622734 64.5502 0.504398 64.683C-0.0175553 65.2692 -0.146649 66.1072 0.174492 66.8232C0.495632 67.5391 1.20737 68 1.99216 68H66.0078C66.7688 68 67.4633 67.5664 67.7976 66.8828C68.1317 66.1992 68.0474 65.3849 67.58 64.7842ZM20.9628 26.9581L34.3264 17.8771C34.7222 19.1401 35.0719 20.4201 35.3722 21.7176L20.5296 31.8038C20.6034 30.2441 20.7425 28.6243 20.9628 26.9581ZM21.9738 21.4539C23.1906 16.3163 25.2642 10.9068 28.6188 5.57441C30.3273 8.279 31.7667 11.0904 32.9405 14.0015L21.9738 21.4539ZM20.4961 36.6438L36.179 25.9865C36.8241 30.3597 36.9548 34.9112 36.5666 39.6274C36.1538 44.6411 35.1975 48.9293 34.323 52.0159C30.2386 52.0394 26.5399 52.4701 23.2384 53.1424C22.2965 50.0504 21.1538 45.3767 20.6797 39.7673C20.5957 38.7749 20.5323 37.7314 20.4961 36.6438ZM34.6735 55.9971C45.4742 55.9971 52.9886 59.0514 57.3905 61.6136C58.8019 62.4352 59.9934 63.2602 60.9717 64.0156H7.43402C12.1776 60.6701 21.2129 55.9971 34.6735 55.9971ZM39.444 5.57441C45.7576 15.5693 48.4302 27.0098 47.3915 39.6274C46.9364 45.1541 45.8212 49.7995 44.8829 52.9247C42.8862 52.5547 40.7358 52.2795 38.4326 52.133C39.2726 48.9847 40.1222 44.8692 40.5251 40.1029C41.0665 33.6965 40.6823 27.4364 39.3827 21.4965C38.6317 18.0636 37.5721 14.7359 36.214 11.532C37.1285 9.54749 38.1975 7.55557 39.444 5.57441Z"/>
</symbol>

<symbol id="checkmark" viewBox="0 0 31 24">
    <path d="M28.4138 1.65506C26.4828 -0.551832 23.1724 -0.551832 21.2414 1.3792L11.0345 11.5861L8.82758 9.3792C6.89655 7.44817 3.5862 7.44817 1.65517 9.3792H1.37931C-0.551726 11.3102 -0.551726 14.6206 1.37931 16.5516L7.44827 22.6206C8.55172 23.724 9.93103 23.9999 11.0345 23.9999C12.4138 23.9999 13.5172 23.4482 14.6207 22.6206L28.4138 8.82748C30.3448 6.89644 30.3448 3.5861 28.4138 1.65506Z"/>
</symbol>

<symbol id="vk" viewBox="0 0 24 24">
    <path d="M23.8692 17.5259C23.8692 17.4605 23.8038 17.3951 23.8038 17.3951C23.4114 16.6757 22.5613 15.6948 21.3842 14.6485C20.861 14.1253 20.5341 13.7984 20.4033 13.6022C20.1417 13.2752 20.0763 12.9482 20.2071 12.6212C20.3379 12.3597 20.6649 11.8365 21.3188 10.9864C21.6458 10.5286 21.9074 10.2016 22.1035 9.94004C23.5422 8.04358 24.1962 6.80108 24 6.27792L23.9346 6.14712C23.8692 5.95094 23.7384 5.88554 23.5422 5.82015C23.3461 5.75475 23.0845 5.75475 22.7575 5.82015H19.1608C19.0954 5.82015 19.03 5.82015 18.8992 5.82015C18.7684 5.82015 18.7684 5.88554 18.7684 5.88554H18.703L18.6376 5.95094C18.5722 5.95094 18.5722 6.01633 18.5068 6.08173C18.4414 6.14713 18.4414 6.21252 18.376 6.27792C17.9837 7.25884 17.5259 8.23977 17.0681 9.0899C16.7411 9.61306 16.4796 10.0708 16.218 10.4632C15.9564 10.8556 15.7602 11.1172 15.564 11.3133C15.3678 11.5095 15.2371 11.6403 15.1063 11.7711C14.9755 11.9019 14.8447 11.9019 14.7793 11.9019C14.7139 11.9019 14.6485 11.8365 14.5831 11.8365C14.4523 11.7711 14.3869 11.6403 14.3215 11.5095C14.2561 11.3787 14.1907 11.2479 14.1907 11.0518C14.1907 10.8556 14.1253 10.6594 14.1253 10.5286C14.1253 10.3978 14.1253 10.2016 14.1253 9.94004C14.1253 9.67846 14.1253 9.48227 14.1253 9.41688C14.1253 9.0899 14.1253 8.76293 14.1253 8.37056C14.1253 7.97819 14.1253 7.71661 14.1253 7.52042C14.1253 7.32424 14.1253 7.06266 14.1253 6.80108C14.1253 6.5395 14.1253 6.34331 14.0599 6.21252C14.0599 6.08173 13.9946 5.95094 13.9292 5.82015C13.8638 5.68936 13.7984 5.55857 13.6676 5.49317C13.5368 5.42778 13.406 5.36238 13.2752 5.29699C12.8174 5.1662 12.2943 5.1662 11.5749 5.1662C10.0055 5.1662 9.02452 5.23159 8.56676 5.49317C8.37057 5.55857 8.23978 5.68936 8.10899 5.88554C7.9782 6.08173 7.91281 6.14712 8.0436 6.21252C8.56676 6.27792 8.89373 6.4741 9.08992 6.73568L9.15531 6.86647C9.22071 6.99726 9.2861 7.19345 9.3515 7.45503C9.41689 7.71661 9.41689 8.04358 9.48229 8.37056C9.54768 8.95911 9.54768 9.48227 9.48229 9.94004C9.41689 10.3978 9.41689 10.7248 9.3515 10.921C9.2861 11.1825 9.2861 11.3787 9.15531 11.5095C9.08992 11.6403 9.02452 11.7711 9.02452 11.7711C9.02452 11.8365 8.95913 11.8365 8.95913 11.8365C8.82834 11.9019 8.76294 11.9019 8.63215 11.9019C8.50136 11.9019 8.37057 11.8365 8.23978 11.7057C8.0436 11.5749 7.91281 11.4441 7.71662 11.2479C7.52044 11.0518 7.32425 10.7902 7.12807 10.3978C6.93188 10.0054 6.6703 9.61306 6.40872 9.0899L6.21253 8.69753C6.08174 8.43595 5.88556 8.10898 5.68937 7.65121C5.49319 7.19345 5.297 6.80108 5.10082 6.34331C5.03542 6.21252 4.90463 6.08173 4.77384 5.95094H4.70845C4.64305 5.88554 4.57766 5.88554 4.51226 5.82015C4.44687 5.82015 4.31608 5.75475 4.25068 5.75475H0.850136C0.457766 5.75475 0.196185 5.88554 0.0653951 6.01633V6.08173C0 6.14713 0 6.21252 0 6.27792C0 6.34331 0 6.4741 0.0653951 6.60489C0.588556 7.782 1.11172 8.89372 1.70027 10.0054C2.28883 11.1172 2.81199 11.9673 3.20436 12.6212C3.66213 13.2752 4.0545 13.9291 4.51226 14.5177C4.97003 15.1063 5.23161 15.4986 5.42779 15.6294C5.55858 15.8256 5.68937 15.891 5.75477 16.0218L6.08174 16.3488C6.27793 16.5449 6.60491 16.8065 6.93188 17.0681C7.32425 17.3297 7.71662 17.5913 8.23978 17.9182C8.69755 18.1798 9.2861 18.4414 9.87466 18.5722C10.5286 18.7684 11.1172 18.8338 11.7057 18.7684H13.1444C13.406 18.7684 13.6676 18.6376 13.7984 18.5068L13.8638 18.4414C13.9292 18.376 13.9292 18.3106 13.9292 18.1798C13.9292 18.049 13.9946 17.9836 13.9946 17.8528C13.9946 17.5259 13.9946 17.1989 14.0599 16.8719C14.1253 16.6103 14.1907 16.3488 14.2561 16.218C14.3215 16.0872 14.4523 15.9564 14.5177 15.8256C14.6485 15.6948 14.7139 15.6948 14.7139 15.6294C14.7793 15.6294 14.7793 15.564 14.8447 15.564C15.0409 15.4986 15.3025 15.564 15.564 15.7602C15.8256 15.9564 16.0872 16.218 16.3488 16.4795C16.6104 16.7411 16.8719 17.0681 17.1989 17.4605C17.5259 17.7875 17.8529 18.1144 18.049 18.2452L18.3106 18.376C18.5068 18.5068 18.703 18.5722 18.9646 18.6376C19.2262 18.703 19.4877 18.7684 19.6839 18.703L22.8883 18.6376C23.2153 18.6376 23.4768 18.5722 23.6076 18.5068C23.8038 18.376 23.8692 18.3106 23.9346 18.1798C24 18.049 24 17.9182 23.9346 17.7221C23.9346 17.7221 23.9346 17.5913 23.8692 17.5259Z"/>
</symbol>

<symbol id="fb" viewBox="0 0 24 24">
    <path d="M24 22.6921C24 23.4114 23.4114 24 22.6921 24H16.545V14.7139H19.6839L20.1417 11.1172H16.545V8.82834C16.545 7.78202 16.8065 7.06267 18.3106 7.06267H20.2071V3.79292C19.8801 3.72752 18.7684 3.66213 17.3951 3.66213C14.6485 3.66213 12.752 5.3624 12.752 8.43597V11.1172H9.61308V14.7139H12.752V24H1.3079C0.588556 24 0 23.4114 0 22.6921V1.3079C0 0.588556 0.588556 0 1.3079 0H22.6921C23.4114 0 24 0.588556 24 1.3079V22.6921Z"/>
</symbol>

<symbol id="in" viewBox="0 0 24 24">
    <path d="M21.1226 0H2.87738C1.3079 0 0 1.24251 0 2.81199V21.188C0 22.7575 1.3079 24 2.87738 24H21.1226C22.6921 24 24 22.7575 24 21.188V2.81199C24 1.24251 22.6921 0 21.1226 0ZM17.2643 3.72752C17.2643 3.33515 17.5913 3.00817 17.9837 3.00817H20.2725C20.6649 3.00817 20.9918 3.33515 20.9918 3.72752V5.95095C20.9918 6.34332 20.6649 6.6703 20.2725 6.6703H18.049C17.6567 6.6703 17.3297 6.34332 17.3297 5.95095L17.2643 3.72752ZM12.0327 7.38965C14.5831 7.38965 16.6757 9.41689 16.6757 11.9673C16.6757 14.5177 14.5831 16.545 12.0327 16.545C9.48229 16.545 7.38965 14.5177 7.38965 11.9673C7.38965 9.48229 9.48229 7.38965 12.0327 7.38965ZM21.7112 20.9918C21.7112 21.3842 21.3842 21.7112 20.9918 21.7112H3.00817C2.6158 21.7112 2.28883 21.3842 2.28883 20.9918V9.74387H5.23161C4.83924 10.3324 4.70845 11.3787 4.70845 12.0327C4.70845 16.0218 7.9782 19.2916 12.0327 19.2916C16.0872 19.2916 19.3569 16.0218 19.3569 12.0327C19.3569 11.3787 19.2916 10.3324 18.7684 9.74387H21.7766L21.7112 20.9918Z"/>
</symbol>

<symbol id="tw" viewBox="0 0 24 24">
    <path d="M23.346 2.41963C22.3651 3.00818 21.3188 3.40055 20.2071 3.66213C19.2916 2.68121 18.049 2.09265 16.6104 2.09265C13.8638 2.09265 11.7057 4.38148 11.7057 7.12807C11.7057 7.52044 11.7711 7.91281 11.8365 8.30519C7.71662 8.0436 4.11989 6.01636 1.70027 2.94279C1.3079 3.66213 1.04632 4.57766 1.04632 5.4932C1.04632 7.25886 1.89646 8.76295 3.26975 9.67848C2.48501 9.67848 1.70027 9.4169 1.04632 9.02453V9.15532C1.04632 11.5749 2.74659 13.6676 4.97003 14.1253C4.57766 14.2561 4.11989 14.3215 3.66213 14.3215C3.33515 14.3215 3.00817 14.3215 2.74659 14.2561C3.40054 16.2834 5.16621 17.7221 7.32425 17.7875C5.62398 19.1608 3.53133 19.9455 1.17711 19.9455C0.784741 19.9455 0.392371 19.9455 0 19.8801C2.15804 21.3188 4.77384 22.1689 7.52044 22.1689C16.6104 22.1689 21.515 14.4523 21.515 7.78202C21.515 7.58584 21.515 7.32426 21.515 7.12807C22.4959 6.40873 23.346 5.55859 24 4.51227C23.1499 4.90464 22.1689 5.16622 21.188 5.29701C22.1689 4.57767 22.9537 3.59674 23.346 2.41963Z"/>
</symbol>

</svg>